<svg width="191" height="40" viewBox="0 0 191 40" fill="none" xmlns="http://www.w3.org/2000/svg">
<path d="M118.941 27.6949V13.3142H122.694V21.4284L128.72 13.3142H131.972V27.6949H128.219V19.4966L122.087 27.6927H118.941V27.6949ZM124.028 8.95947C124.048 9.76049 124.569 10.2539 125.425 10.2539C126.281 10.2539 126.802 9.76049 126.822 8.95947H129.387C129.367 10.0902 128.992 10.9731 128.241 11.6104C127.512 12.2476 126.573 12.5751 125.447 12.5751C124.322 12.5751 123.383 12.2454 122.633 11.6104C121.903 10.9731 121.528 10.0902 121.508 8.95947H124.028Z" fill="#FF6100"/>
<path d="M38.2678 30.4874V24.4466H39.6649C40.7699 22.6808 41.3336 19.8242 41.3336 15.9009V13.312H52.2179V24.4466H54.136V30.4874H50.5918V27.6927H41.7918V30.4874H38.2678ZM48.4625 24.4488V16.5603H45.0643C45.0239 19.5807 44.5837 22.2095 43.7504 24.4488H48.4625Z" fill="#FF6100"/>
<path d="M72.1042 27.6949V13.3142H83.011V16.4785H75.8798V18.0407H78.5908C80.3225 18.0407 81.7195 18.4921 82.7414 19.3971C83.7634 20.2999 84.2845 21.4726 84.2845 22.8888C84.2845 24.3072 83.7634 25.4777 82.7414 26.3606C81.7195 27.2435 80.3225 27.6949 78.5908 27.6949H72.1042ZM75.8798 24.5307H78.2988C79.6329 24.5307 80.4887 23.8536 80.4887 22.7649C80.4887 21.6342 79.6329 20.9372 78.2988 20.9372H75.8798V24.5307Z" fill="#FF6100"/>
<path d="M86.4475 27.6949V13.3142H92.952C94.5781 13.3142 95.8718 13.7258 96.8309 14.5666C97.7899 15.4097 98.2706 16.4762 98.2706 17.8127C98.2706 19.147 97.7899 20.2357 96.8309 21.0788C95.8718 21.9218 94.5781 22.3312 92.952 22.3312H90.2006V27.6927H86.4475V27.6949ZM90.2006 19.2931H92.6825C93.7673 19.2931 94.4748 18.7598 94.4748 17.8548C94.4748 16.952 93.7875 16.4386 92.6825 16.4386H90.2006V19.2931Z" fill="#FF6100"/>
<path d="M99.2656 27.6949V13.3142H103.019V17.7508H105.166C106.938 17.7508 108.355 18.2221 109.42 19.147C110.485 20.072 111.026 21.2823 111.026 22.7428C111.026 24.201 110.505 25.3914 109.44 26.3164C108.378 27.2413 106.958 27.6927 105.166 27.6927H99.2656V27.6949ZM103.019 24.5307H104.937C106.354 24.5307 107.23 23.8115 107.23 22.6609C107.23 21.4903 106.354 20.7513 104.937 20.7513H103.019V24.5307ZM112.528 13.3142H116.282V27.6949H112.528V13.3142Z" fill="#FF6100"/>
<path d="M139.966 27.6949L145.805 20.2977L140.716 13.3142H145.347L149.413 19.0873V13.3142H153.166V19.0873L157.254 13.3142H161.86L156.773 20.2977L162.61 27.6949H157.732L153.166 21.8178V27.6949H149.413V21.8178L144.846 27.6949H139.966Z" fill="#FF6100"/>
<path d="M162.61 27.6948L168.74 13.2322H172.347L178.476 27.6948H174.451L173.221 24.6544H167.799L166.568 27.6948H162.61ZM168.991 21.696H172.035L170.514 17.8546L168.991 21.696Z" fill="#FF6100"/>
<path d="M179.177 27.6949V13.3142H185.684C187.31 13.3142 188.604 13.7258 189.563 14.5666C190.522 15.4097 191.002 16.4762 191.002 17.8127C191.002 19.147 190.522 20.2357 189.563 21.0788C188.604 21.9218 187.31 22.3312 185.684 22.3312H182.932V27.6927H179.177V27.6949ZM182.932 19.2931H185.414C186.499 19.2931 187.207 18.7598 187.207 17.8548C187.207 16.952 186.519 16.4386 185.414 16.4386H182.932V19.2931Z" fill="#FF6100"/>
<path d="M19.5806 6.13155C19.5806 6.13155 19.4817 5.87708 19.4593 5.4301C19.4413 5.08491 19.5783 4.62245 19.5783 4.62245C19.5783 4.62245 19.3066 4.69104 19.1988 4.83266C19.0595 5.01853 19.055 5.1867 19.055 5.1867C18.918 4.81496 18.1948 4.21088 18.1746 4.21088C18.1543 4.22858 18.0555 5.15794 18.2127 5.52083C18.2127 5.52083 18.0937 5.40134 17.8646 5.36372C17.6894 5.33496 17.4446 5.47215 17.4446 5.47215C17.4446 5.47215 17.8309 5.67572 18.1027 5.9501C18.4081 6.25768 18.5227 6.54091 18.5227 6.54091C18.5227 6.54091 18.772 6.32848 19.046 6.2267C19.3223 6.1227 19.5806 6.13155 19.5806 6.13155ZM18.7091 6.95027C18.2824 7.27776 17.7838 7.73358 16.8517 7.5809C16.9932 7.68048 17.5524 8.04116 18.2015 7.92167C17.9949 8.96388 18.3767 10.5416 19.4458 12.5154C21.0023 15.3853 19.5199 16.277 18.9225 16.443C18.9225 16.443 18.1791 14.8299 16.6944 13.7943C14.4574 12.2343 13.6488 12.5131 9.51388 10.8359C1.29566 7.50346 0.141201 0 0.141201 0C0.141201 0 -0.46298 3.0005 0.821748 6.46346C1.88637 9.33119 3.31933 10.515 3.31933 10.515C3.31933 10.515 3.33955 10.5637 2.68595 10.3468C1.10924 9.82685 0.0872968 8.47264 0.0872968 8.47264C0.0872968 8.47264 0.516288 10.6566 2.38498 12.5707C4.74331 14.9826 8.4807 15.164 8.4807 15.164C7.4363 15.5778 5.24418 15.4118 4.30983 14.8078C5.19477 17.8348 9.61944 20.2976 12.7347 19.875C11.7734 20.3109 9.79912 20.4459 8.77269 20.2135C10.1607 21.7802 12.1619 22.3046 14.0284 22.3599C15.0616 22.3909 16.6203 22.1143 17.6827 21.997C18.8192 21.8709 18.7922 22.3311 18.1049 22.7316C16.1307 23.9796 14.9156 25.8892 14.9268 28.4406C14.9291 29.007 15.0256 29.6155 15.2502 30.2749C15.2502 30.2749 15.2412 29.8877 15.257 29.7151C15.3715 28.4605 15.7713 27.5333 16.4541 26.7478C16.0588 28.7459 16.2946 30.494 17.7613 32.8771C18.4463 33.9902 18.7495 36.1476 18.5901 37.254C18.5901 37.254 19.3403 36.5879 19.5851 35.7781C20.0635 37.9532 19.1471 39.9358 19.1493 40C20.5554 38.7343 23.1001 34.5256 20.4341 29.766C20.6856 30.036 21.5189 30.6887 22.1905 32.9302C22.1905 32.9302 23.0821 30.6445 21.4358 28.3233C23.3786 29.5514 25.3596 28.9097 25.3596 28.9097C25.3596 28.9097 23.6706 28.2525 22.8059 26.4955C22.2623 25.3914 21.8131 22.8622 24.0052 21.82C25.4944 21.1141 26.8914 21.1031 28.1986 20.7866C29.2003 20.5432 30.7052 19.6449 31.0421 18.7553C30.658 18.9855 28.6298 19.0717 28.4591 18.9965C30.7344 18.1911 33.2387 17.5361 33.8676 14.9383C33.0747 15.2481 32.7737 15.403 31.507 15.3764C33.5441 14.2767 35.4196 13.0796 35.0961 10.1322C34.3797 11.2895 33.7081 12.0662 32.4548 12.5862C33.8294 11.0594 36.1652 8.04558 34.9322 4.64236C34.6716 6.02976 33.762 9.57017 29.5754 11.1235C24.5308 12.9933 25.5999 14.821 23.3719 15.892C22.8688 13.5686 21.1797 12.0064 20.4161 10.9863C19.1112 9.24268 19.8636 8.40626 20.7642 7.66056C21.7098 6.87725 22.4667 6.40814 22.4667 6.40814C22.4667 6.40814 21.8446 6.52099 21.4066 6.5564C20.443 6.63384 19.6412 6.29308 18.8776 6.81529C18.8169 6.85733 18.763 6.90159 18.7091 6.95027Z" fill="#FF6100"/>
<path d="M62.6441 27.9826C60.434 27.9826 58.599 27.2635 57.1391 25.8053C55.6792 24.3471 54.9492 22.5791 54.9492 20.5057C54.9492 18.4301 55.6792 16.6644 57.1391 15.2062C58.599 13.748 60.434 13.0288 62.6441 13.0288C64.8542 13.0288 66.6892 13.748 68.1491 15.2062C69.609 16.6644 70.339 18.4324 70.339 20.5057C70.339 22.5813 69.609 24.3471 68.1491 25.8053C66.6892 27.2635 64.8542 27.9826 62.6441 27.9826ZM62.6441 24.5728C63.7492 24.5728 64.6453 24.1811 65.3753 23.4221C66.1052 22.6631 66.4803 21.6763 66.4803 20.5057C66.4803 19.3352 66.1052 18.3483 65.3753 17.5893C64.6453 16.8281 63.7492 16.4387 62.6441 16.4387C61.5391 16.4387 60.6204 16.8281 59.8927 17.5893C59.1628 18.3483 58.8079 19.3352 58.8079 20.5057C58.8079 21.6763 59.1628 22.6631 59.8927 23.4221C60.6204 24.1811 61.5391 24.5728 62.6441 24.5728Z" fill="#FF6100"/>
</svg>
